<svg xmlns="http://www.w3.org/2000/svg" width="1600" height="920" viewBox="0 0 1600 920" fill="none">
  <defs>
    <style>@font-face{font-family:"Geist";src:url("../../../../node_modules/@fontsource-variable/geist/files/geist-latin-wght-normal.woff2") format("woff2")}@font-face{font-family:"Geist Mono";src:url("../../../../node_modules/@fontsource-variable/geist-mono/files/geist-mono-latin-wght-normal.woff2") format("woff2")}.sans{font-family:"Geist",ui-sans-serif,system-ui,sans-serif}.mono{font-family:"Geist Mono",ui-monospace,monospace}.label{fill:#f5f5f7;font-size:15px;font-weight:520;letter-spacing:.02em}.meta{fill:#8c8d94;font-size:12px;font-weight:500;letter-spacing:.12em}</style>
    <linearGradient id="ridge" x1="150" x2="1450" gradientUnits="userSpaceOnUse"><stop stop-color="#B4D2FF" stop-opacity="0"/><stop offset=".22" stop-color="#B4D2FF" stop-opacity=".34"/><stop offset=".5" stop-color="white"/><stop offset=".78" stop-color="#B4D2FF" stop-opacity=".34"/><stop offset="1" stop-color="#B4D2FF" stop-opacity="0"/></linearGradient><filter id="ridgeGlow" x="0" y="40" width="1600" height="140" filterUnits="userSpaceOnUse"><feGaussianBlur stdDeviation="20"/></filter><pattern id="dots" width="28" height="28" patternUnits="userSpaceOnUse"><circle cx="1" cy="1" r="1" fill="white" fill-opacity=".055"/></pattern><clipPath id="innerClip"><rect x="100" y="120" width="1400" height="720" rx="24"/></clipPath>
  </defs>
  <rect width="1600" height="920" fill="#000"/><g opacity=".78" filter="url(#ridgeGlow)"><path d="M150 102H1450" stroke="url(#ridge)" stroke-width="16"/></g><path d="M150 102H1450" stroke="url(#ridge)" stroke-width="2"/><rect x="80.5" y="100.5" width="1439" height="759" rx="33.5" fill="#0A0A0C" fill-opacity=".92" stroke="white" stroke-opacity=".12"/><rect x="100.5" y="120.5" width="1399" height="719" rx="23.5" fill="#030304" fill-opacity=".64" stroke="white" stroke-opacity=".055"/>
  <g clip-path="url(#innerClip)"><rect x="100" y="120" width="1400" height="720" fill="url(#dots)"/><text x="180" y="205" class="mono meta">AUTHENTICATED CAMOUFLAGE</text><text x="1420" y="205" text-anchor="end" class="mono meta">SAME PUBLIC ENDPOINT</text><path d="M180 232H1420" stroke="white" stroke-opacity=".08"/>
    <ellipse cx="800" cy="482" rx="178" ry="238" stroke="white" stroke-opacity=".1"/><ellipse cx="800" cy="482" rx="112" ry="178" stroke="white" stroke-opacity=".16"/><path d="M800 274V690" stroke="white" stroke-opacity=".24"/><path d="M778 306H822M778 658H822" stroke="white" stroke-opacity=".24"/><text x="800" y="256" text-anchor="middle" class="mono meta">PUBLIC SURFACE</text>
    <g stroke="white" stroke-opacity=".18"><path d="M202 362H602"/><path d="M202 380H602"/><path d="M202 398H602"/><path d="M998 324H1398"/><path d="M998 342H1398"/><path d="M998 360H1398"/><path d="M202 548H602"/><path d="M202 566H602"/><path d="M202 584H602"/><path d="M998 548H1398"/><path d="M998 566H1398"/><path d="M998 584H1398"/></g>
    <g stroke="#F5F5F7" stroke-width="1.4"><path d="M202 380H614C690 380 716 408 762 421C793 430 813 418 826 397C849 360 874 342 924 342H1398" stroke-opacity=".42"/><path d="M202 566H614C700 566 721 542 770 535C812 529 838 566 902 566H1398" stroke-opacity=".66"/></g>
    <path d="M1370 334L1398 342L1370 350M1370 558L1398 566L1370 574" stroke="white" stroke-opacity=".5"/>
    <circle cx="202" cy="380" r="7" fill="#F5F5F7" fill-opacity=".55"/><circle cx="202" cy="566" r="7" fill="#F5F5F7"/>
    <circle cx="800" cy="482" r="55" stroke="white" stroke-opacity=".22"/><circle cx="800" cy="482" r="30" stroke="white" stroke-opacity=".38"/><path d="M784 482H816M800 466V498" stroke="white" stroke-opacity=".48"/>
    <text x="184" y="336" class="mono meta">ACTIVE PROBE</text><text x="184" y="522" class="mono meta">VALID CLIENT</text><text x="1416" y="302" text-anchor="end" class="mono meta">PLAUSIBLE WEB RESPONSE</text><text x="1416" y="522" text-anchor="end" class="mono meta">AUTHENTICATED TUNNEL</text>
    <text x="800" y="728" text-anchor="middle" class="mono meta">AUTHENTICATION CHANGES WHAT THE ENDPOINT REVEALS</text>
    <text x="180" y="773" class="sans label">The gate does not select a new transport; it exposes the tunnel only to a client that proves it belongs there.</text>
  </g>
</svg>
